<svg width="130" height="80" viewBox="0 0 130 80" fill="none" xmlns="http://www.w3.org/2000/svg">
<path d="M129.532 39.9989C129.532 29.3906 124.104 19.2166 114.442 11.7154C104.779 4.21416 91.6749 1.39112e-06 78.0108 0C64.3466 -1.39111e-06 51.2421 4.21416 41.58 11.7154C31.9178 19.2166 26.4897 29.3906 26.4897 39.9989H42.5903C47.9255 39.9989 52.0863 36.5277 54.0405 32.6735C55.3235 30.143 57.2704 27.8175 59.7952 25.8571C64.6263 22.1065 71.1787 19.9994 78.0108 19.9994C84.8428 19.9994 91.3953 22.1065 96.2263 25.8571C101.057 29.6077 103.771 34.6947 103.771 39.9989H129.532Z" fill="url(#paint0_linear_1_7136)"/>
<path d="M99.8537 55.3082C102.443 50.4553 103.776 45.254 103.776 40.0015H129.533C129.533 62.0922 106.467 80.0001 78.0123 80.0001C73.5562 80.0001 69.232 79.561 65.1083 78.7353C67.4415 78.2686 69.7348 77.6743 71.9707 76.9554C78.2215 74.9453 83.9012 71.9991 88.6854 68.2848C93.4696 64.5706 97.2648 60.1612 99.8537 55.3082Z" fill="#4392F9"/>
<path d="M0.733337 39.9963C0.733336 45.2492 2.06597 50.4504 4.65513 55.3034C7.24432 60.1563 11.0393 64.5657 15.8235 68.28C20.6076 71.994 26.2873 74.9404 32.5381 76.9506C38.7889 78.9607 45.4884 79.9952 52.2544 79.9952C59.0201 79.9952 65.7196 78.9607 71.9705 76.9506C78.2214 74.9404 83.901 71.994 88.6852 68.28C93.4694 64.5657 97.2642 60.1563 99.8535 55.3034C102.443 50.4504 103.775 45.2492 103.775 39.9963H87.6749C82.3397 39.9963 78.1789 43.4675 76.2246 47.3215C76.1692 47.4313 76.1121 47.5407 76.0539 47.65C74.7593 50.0763 72.8619 52.2812 70.4696 54.1382C68.0777 55.9952 65.2377 57.4685 62.1125 58.4736C58.9872 59.4787 55.6374 59.9959 52.2544 59.9959C48.8714 59.9959 45.5216 59.4787 42.3964 58.4736C39.2708 57.4685 36.4311 55.9952 34.0389 54.1382C31.6468 52.2812 29.7493 50.0763 28.4548 47.65C27.1601 45.2234 26.4938 42.6228 26.4938 39.9963H0.733337Z" fill="url(#paint1_linear_1_7136)"/>
<path d="M0.737183 39.9989C0.737183 17.908 23.8039 0 52.2581 0C56.7131 0 61.0361 0.438973 65.1594 1.26428C56.3119 3.03374 48.1504 6.61465 41.58 11.7154C31.9179 19.2166 26.4899 29.3906 26.4899 39.9989H0.737183Z" fill="black"/>
<defs>
<linearGradient id="paint0_linear_1_7136" x1="129.532" y1="19.9994" x2="26.4897" y2="19.9994" gradientUnits="userSpaceOnUse">
<stop stop-color="#CFE2FC"/>
<stop offset="1" stop-color="#4392F9"/>
</linearGradient>
<linearGradient id="paint1_linear_1_7136" x1="0.733341" y1="59.9959" x2="103.775" y2="59.9959" gradientUnits="userSpaceOnUse">
<stop stop-color="#F8BCC6"/>
<stop offset="1"/>
</linearGradient>
</defs>
</svg>
